<?xml version="1.0" encoding="UTF-8"?>
<svg width="9px" height="15px" viewBox="0 0 9 15" version="1.1" xmlns="http://www.w3.org/2000/svg" xmlns:xlink="http://www.w3.org/1999/xlink">
    <!-- Generator: Sketch 44 (41411) - http://www.bohemiancoding.com/sketch -->
    <title>$</title>
    <desc>Created with Sketch.</desc>
    <defs></defs>
    <g id="Page-1" stroke="none" stroke-width="1" fill="none" fill-rule="evenodd">
        <g id="Music---Event-box" transform="translate(-556.000000, -256.000000)" fill="#FFFFFF">
            <g id="Rectangle-1-Copy" transform="translate(62.000000, 75.000000)">
                <g id="Group" transform="translate(314.000000, 179.000000)">
                    <g id="Ticket-Price-+-$" transform="translate(179.000000, 0.000000)">
                        <path d="M5.7109375,16.0703125 L4.6640625,16.0703125 L4.6640625,15.0234375 C3.60676555,14.9453121 2.76041984,14.6237007 2.125,14.0585938 C1.48958016,13.4934868 1.16927086,12.7786502 1.1640625,11.9140625 L2.5,11.9140625 C2.54166687,12.4348984 2.75260227,12.8619775 3.1328125,13.1953125 C3.51302273,13.5286475 4.0234343,13.7343746 4.6640625,13.8125 L4.6640625,9.75 L4.0390625,9.578125 C3.20051664,9.35416555 2.55729391,8.99219 2.109375,8.4921875 C1.66145609,7.992185 1.4375,7.38281609 1.4375,6.6640625 C1.4375,5.80989156 1.72655961,5.10937773 2.3046875,4.5625 C2.88281539,4.01562227 3.66926586,3.69270883 4.6640625,3.59375 L4.6640625,2.5 L5.7109375,2.5 L5.7109375,3.5859375 C6.67969234,3.66927125 7.4622366,3.98827848 8.05859375,4.54296875 C8.6549509,5.09765902 8.9661457,5.79947492 8.9921875,6.6484375 L7.6640625,6.6484375 C7.64843742,6.15885172 7.46224137,5.74479336 7.10546875,5.40625 C6.74869613,5.06770664 6.28385703,4.86458367 5.7109375,4.796875 L5.7109375,8.6171875 L6.3828125,8.78125 C7.34635898,9.03645961 8.0559873,9.41015379 8.51171875,9.90234375 C8.9674502,10.3945337 9.1953125,11.0312461 9.1953125,11.8125 C9.1953125,12.739588 8.89062805,13.4830701 8.28125,14.0429688 C7.67187195,14.6028674 6.81510969,14.9270829 5.7109375,15.015625 L5.7109375,16.0703125 Z M7.84375,11.921875 C7.84375,11.4010391 7.67187672,10.9830745 7.328125,10.6679688 C6.98437328,10.352863 6.44531617,10.1171883 5.7109375,9.9609375 L5.7109375,13.8359375 C6.39323258,13.799479 6.91926898,13.614585 7.2890625,13.28125 C7.65885602,12.947915 7.84375,12.4947945 7.84375,11.921875 Z M2.78125,6.5859375 C2.78125,7.04427313 2.94140465,7.4270818 3.26171875,7.734375 C3.58203285,8.0416682 4.04947609,8.26041602 4.6640625,8.390625 L4.6640625,4.796875 C4.11718477,4.82812516 3.66666844,5.01171707 3.3125,5.34765625 C2.95833156,5.68359543 2.78125,6.09635172 2.78125,6.5859375 Z" id="$"></path>
                    </g>
                </g>
            </g>
        </g>
    </g>
</svg>