<?xml version="1.0" encoding="UTF-8"?>
<svg width="11px" height="16px" viewBox="0 0 11 16" version="1.1" xmlns="http://www.w3.org/2000/svg" xmlns:xlink="http://www.w3.org/1999/xlink">
    <!-- Generator: Sketch 44 (41411) - http://www.bohemiancoding.com/sketch -->
    <title>Imported Layers</title>
    <desc>Created with Sketch.</desc>
    <defs></defs>
    <g id="Page-1" stroke="none" stroke-width="1" fill="none" fill-rule="evenodd">
        <g id="Music---Event-box" transform="translate(-380.000000, -256.000000)" fill="#FFFFFF">
            <g id="Rectangle-1-Copy" transform="translate(62.000000, 75.000000)">
                <g id="Group" transform="translate(314.000000, 179.000000)">
                    <g id="AllPhones-Arena-+-Imported-Layers" transform="translate(4.000000, 2.000000)">
                        <path d="M10.4818108,5.4221875 C10.4006486,4.4228125 10.0739189,3.5196875 9.49983784,2.720625 C8.70456757,1.6134375 7.65302703,0.9215625 6.36394595,0.626875 C6.08002703,0.561875 5.79283784,0.5234375 5.50208108,0.5125 C5.47472973,0.5115625 5.44767568,0.504375 5.42032432,0.5 L5.07397297,0.5 C4.98151351,0.5090625 4.88905405,0.518125 4.79659459,0.526875 C3.62494595,0.634375 2.59362162,1.0915625 1.71362162,1.91125 C0.945108108,2.6265625 0.426621622,3.50875 0.164405405,4.5540625 C0.0772972973,4.901875 0.024972973,5.2559375 0.0121891892,5.6159375 C0.011,5.6428125 0.00416216216,5.6690625 0,5.695625 L0,6.046875 C0.00832432432,6.1403125 0.0172432432,6.2334375 0.024972973,6.3265625 C0.103756757,7.2896875 0.423945946,8.156875 0.949864865,8.9475 C1.20940541,9.3378125 1.44872973,9.7428125 1.69518919,10.1425 C2.71432432,11.7959375 3.73256757,13.45 4.75259459,15.1028125 C4.76983784,15.1309375 4.80521622,15.1465625 4.83167568,15.1684375 C4.93691892,15.25625 5.05613514,15.3084375 5.18962162,15.3253125 C5.19527027,15.3259375 5.20032432,15.3309375 5.20537838,15.33375 L5.32489189,15.33375 C5.35908108,15.325 5.39327027,15.3159375 5.42745946,15.306875 C5.5992973,15.261875 5.73456757,15.161875 5.83089189,15.0059375 C6.78551351,13.455625 7.73954054,11.904375 8.69475676,10.3540625 C9.04735135,9.781875 9.40113514,9.210625 9.75491892,8.639375 C9.89702703,8.4090625 9.98027027,8.2278125 10.0207027,8.1309375 C10.0212973,8.1240625 10.0224865,8.1175 10.0251622,8.1115625 C10.2261351,7.66125 10.3661622,7.190625 10.439,6.699375 C10.4651622,6.524375 10.474973,6.3465625 10.4925135,6.1703125 C10.4963784,6.1334375 10.5017297,6.0965625 10.5064865,6.0596875 L10.5064865,5.695625 C10.4981622,5.604375 10.4892432,5.5134375 10.4818108,5.4221875 L10.4818108,5.4221875 Z M6.89878378,5.8734375 C6.89878378,5.9496875 6.89343243,6.025 6.88332432,6.099375 C6.87945946,6.1171875 6.87737838,6.1321875 6.87648649,6.1446875 C6.76886486,6.799375 6.27743243,7.3578125 5.64389189,7.5053125 C4.93305405,7.670625 4.22578378,7.37375 3.85327027,6.7534375 C3.34875676,5.9128125 3.64991892,4.8221875 4.51059459,4.3715625 C5.41408108,3.89875 6.52062162,4.3765625 6.82148649,5.375 C6.85983784,5.503125 6.87767568,5.638125 6.89878378,5.7721875 C6.90175676,5.804375 6.90354054,5.838125 6.90383784,5.8721875 C6.90235135,5.8725 6.90056757,5.873125 6.89878378,5.8734375 L6.89878378,5.8734375 Z" id="Imported-Layers"></path>
                    </g>
                </g>
            </g>
        </g>
    </g>
</svg>